<svg xmlns="http://www.w3.org/2000/svg" xmlns:xlink="http://www.w3.org/1999/xlink" width="240" viewBox="0 0 180 60" height="80" preserveAspectRatio="xMidYMid meet"><defs><g></g><clipPath id="cfa8bbb425"><path d="M 7.59375 6.003906 L 61.058594 6.003906 L 61.058594 53.996094 L 7.59375 53.996094 Z M 7.59375 6.003906 " clip-rule="nonzero"></path></clipPath><clipPath id="8e0e702728"><path d="M 41.863281 44.746094 L 44.734375 47.621094 C 45.976562 47.535156 47.105469 47.117188 48.003906 46.210938 L 43.617188 41.820312 C 43.390625 41.589844 43.390625 41.21875 43.617188 40.988281 L 43.652344 40.957031 C 43.878906 40.726562 44.253906 40.726562 44.480469 40.957031 L 48.769531 45.253906 C 49.820312 43.617188 49.707031 41.867188 49.117188 40.03125 C 49.058594 39.863281 49.082031 39.691406 49.175781 39.542969 C 49.273438 39.390625 49.414062 39.296875 49.589844 39.273438 C 49.613281 39.269531 49.632812 39.265625 49.652344 39.265625 C 49.933594 39.222656 50.199219 39.386719 50.289062 39.660156 C 51.117188 42.152344 51.175781 44.546875 49.046875 46.882812 C 45.882812 50.351562 40.667969 48.605469 36.464844 46.699219 L 36.792969 48.949219 C 36.816406 49.109375 36.78125 49.253906 36.683594 49.382812 C 36.589844 49.511719 36.460938 49.589844 36.300781 49.613281 L 36.253906 49.621094 C 35.933594 49.667969 35.636719 49.445312 35.589844 49.125 L 35.140625 46.085938 C 34.855469 45.949219 34.574219 45.816406 34.304688 45.683594 C 33.894531 45.488281 33.507812 45.300781 33.144531 45.132812 C 32.933594 45.035156 32.804688 44.835938 32.804688 44.601562 L 32.804688 44.550781 C 32.804688 44.347656 32.902344 44.167969 33.078125 44.058594 C 33.25 43.945312 33.453125 43.933594 33.640625 44.019531 C 34.011719 44.195312 34.410156 44.386719 34.828125 44.585938 C 37.179688 45.71875 40.199219 47.167969 42.933594 47.542969 L 41 45.609375 C 40.773438 45.382812 40.773438 45.007812 41 44.78125 L 41.035156 44.746094 C 41.261719 44.519531 41.636719 44.519531 41.863281 44.746094 M 52.65625 31.484375 L 52.65625 31.4375 C 52.65625 31.113281 52.394531 30.851562 52.070312 30.851562 L 46.167969 30.851562 C 45.976562 30.851562 45.8125 30.933594 45.699219 31.082031 C 45.585938 31.234375 45.550781 31.414062 45.601562 31.597656 C 46.070312 33.25 46.824219 34.835938 47.5625 36.382812 C 47.5625 36.390625 47.566406 36.394531 47.570312 36.402344 C 47.675781 36.628906 47.90625 36.757812 48.15625 36.734375 C 48.171875 36.730469 48.1875 36.730469 48.207031 36.726562 C 48.402344 36.707031 48.5625 36.605469 48.660156 36.433594 C 48.753906 36.261719 48.761719 36.070312 48.679688 35.894531 C 48.671875 35.882812 48.667969 35.871094 48.660156 35.859375 C 48.074219 34.621094 47.46875 33.355469 47.027344 32.070312 L 52.070312 32.070312 C 52.394531 32.070312 52.65625 31.808594 52.65625 31.484375 Z M 50.414062 33.53125 L 53.855469 34.507812 C 54.261719 33.714844 54.542969 32.695312 54.660156 31.386719 C 54.6875 31.082031 54.9375 30.851562 55.242188 30.851562 L 55.296875 30.851562 C 55.464844 30.851562 55.609375 30.914062 55.726562 31.039062 C 55.839844 31.164062 55.894531 31.316406 55.878906 31.484375 C 55.359375 38.101562 51.269531 38.441406 47.339844 38.765625 C 46.855469 38.804688 46.375 38.84375 45.90625 38.898438 L 48.886719 41.882812 C 49.113281 42.109375 49.113281 42.484375 48.886719 42.710938 L 48.851562 42.746094 C 48.625 42.972656 48.25 42.972656 48.023438 42.746094 L 44.421875 39.136719 C 43.542969 39.339844 42.765625 39.664062 42.175781 40.222656 C 41.886719 40.496094 41.632812 40.785156 41.40625 41.082031 L 45.417969 45.101562 C 45.644531 45.328125 45.644531 45.703125 45.417969 45.929688 L 45.382812 45.964844 C 45.15625 46.191406 44.785156 46.191406 44.554688 45.964844 L 40.742188 42.144531 C 40.238281 43.117188 39.949219 44.167969 39.742188 45.214844 C 39.707031 45.394531 39.605469 45.53125 39.445312 45.617188 C 39.289062 45.703125 39.117188 45.710938 38.953125 45.644531 C 38.9375 45.640625 38.921875 45.632812 38.90625 45.628906 C 38.644531 45.523438 38.496094 45.25 38.550781 44.96875 C 38.941406 42.996094 39.59375 40.996094 41.339844 39.339844 C 42.847656 37.910156 45.019531 37.730469 47.238281 37.546875 C 49.429688 37.367188 51.679688 37.179688 53.128906 35.570312 L 50.082031 34.703125 C 49.773438 34.617188 49.59375 34.292969 49.679688 33.980469 L 49.691406 33.9375 C 49.734375 33.78125 49.828125 33.664062 49.96875 33.582031 C 50.109375 33.503906 50.261719 33.488281 50.414062 33.53125 Z M 49.484375 29.140625 L 55.363281 29.140625 C 55.773438 30.191406 56.574219 31.449219 57.414062 32.769531 C 58.160156 33.941406 58.9375 35.167969 59.457031 36.261719 C 59.855469 37.089844 59.640625 37.449219 59.242188 37.640625 C 58.921875 37.792969 58.488281 37.898438 58.074219 37.996094 C 57.386719 38.164062 56.742188 38.316406 56.347656 38.726562 C 55.355469 39.75 56.011719 40.917969 56.628906 42.019531 C 56.769531 42.261719 56.902344 42.503906 57.015625 42.746094 C 57.152344 43.058594 56.148438 43.265625 56.144531 43.265625 L 55.28125 43.453125 C 55.054688 43.5 54.902344 43.695312 54.902344 43.921875 C 54.902344 44.152344 55.0625 44.34375 55.285156 44.390625 L 56.152344 44.5625 C 56.410156 44.617188 56.59375 44.800781 56.679688 45 C 56.769531 45.210938 56.46875 45.121094 56.199219 45.203125 L 56.195312 45.203125 C 55.765625 45.332031 55.476562 45.601562 55.296875 45.945312 C 55.144531 46.242188 55.085938 46.582031 55.085938 46.921875 C 55.085938 47.300781 55.160156 47.699219 55.257812 48.027344 C 55.894531 50.164062 55.03125 51.167969 53.644531 51.605469 C 52.210938 52.054688 50.253906 51.996094 48.609375 51.867188 C 47.75 51.800781 47.652344 53.117188 48.507812 53.183594 C 50.273438 53.324219 52.402344 53.382812 54.039062 52.867188 C 56.128906 52.210938 57.445312 50.734375 56.527344 47.648438 C 56.460938 47.429688 56.410156 47.164062 56.410156 46.921875 C 56.410156 46.773438 56.425781 46.640625 56.472656 46.550781 C 56.492188 46.515625 56.523438 46.488281 56.574219 46.472656 C 56.617188 46.460938 56.671875 46.453125 56.746094 46.453125 C 57.265625 46.453125 57.625 46.230469 57.84375 45.886719 C 57.980469 45.675781 58.042969 45.425781 58.039062 45.164062 C 58.039062 44.941406 57.988281 44.710938 57.894531 44.488281 C 57.832031 44.34375 57.75 44.199219 57.652344 44.0625 C 58.199219 43.703125 58.632812 43.117188 58.21875 42.203125 C 58.105469 41.949219 57.945312 41.664062 57.78125 41.371094 C 57.394531 40.691406 56.988281 39.964844 57.296875 39.648438 C 57.429688 39.511719 57.886719 39.398438 58.378906 39.28125 C 58.859375 39.167969 59.367188 39.042969 59.8125 38.832031 C 60.871094 38.324219 61.5 37.472656 60.648438 35.691406 C 60.09375 34.523438 59.292969 33.265625 58.523438 32.058594 C 57.402344 30.292969 56.351562 28.644531 56.402344 27.867188 C 56.421875 27.53125 56.519531 27.25 56.617188 26.964844 C 56.964844 25.9375 57.332031 24.855469 55.84375 21.1875 C 54.871094 18.789062 53.117188 15.167969 49.589844 12.050781 C 46.175781 9.035156 41.117188 6.503906 33.527344 6.042969 C 33.289062 6.027344 33.046875 6.011719 32.804688 6.003906 L 32.804688 12.265625 C 32.933594 12.269531 33.0625 12.28125 33.191406 12.289062 L 35.148438 8.414062 L 35.632812 8.503906 C 35.929688 8.554688 36.226562 8.617188 36.519531 8.679688 C 36.839844 8.753906 37.136719 8.824219 37.40625 8.898438 C 37.699219 8.976562 37.992188 9.0625 38.285156 9.152344 C 38.585938 9.25 38.875 9.34375 39.140625 9.441406 L 39.609375 9.609375 L 39.367188 13.949219 C 39.792969 14.148438 40.214844 14.371094 40.628906 14.613281 C 41.046875 14.851562 41.449219 15.109375 41.839844 15.378906 L 45.472656 12.996094 L 45.851562 13.316406 C 46.3125 13.707031 46.757812 14.121094 47.1875 14.550781 C 47.621094 14.984375 48.03125 15.433594 48.417969 15.890625 L 48.738281 16.269531 L 46.359375 19.910156 C 46.632812 20.308594 46.886719 20.710938 47.121094 21.117188 C 47.359375 21.53125 47.582031 21.953125 47.785156 22.382812 L 52.121094 22.144531 L 52.289062 22.609375 C 52.5 23.191406 52.679688 23.769531 52.835938 24.34375 C 52.988281 24.914062 53.121094 25.507812 53.230469 26.121094 L 53.320312 26.609375 L 49.445312 28.570312 C 49.460938 28.757812 49.472656 28.949219 49.484375 29.140625 Z M 44.9375 29.140625 L 48.15625 29.140625 C 48.140625 28.84375 48.117188 28.546875 48.085938 28.25 L 48.039062 27.796875 L 51.835938 25.871094 C 51.753906 25.480469 51.660156 25.085938 51.554688 24.6875 C 51.445312 24.289062 51.332031 23.902344 51.207031 23.523438 L 46.957031 23.757812 L 46.769531 23.339844 C 46.535156 22.808594 46.269531 22.289062 45.976562 21.78125 C 45.679688 21.269531 45.363281 20.777344 45.023438 20.3125 L 44.753906 19.941406 L 47.085938 16.375 C 46.8125 16.070312 46.535156 15.773438 46.25 15.488281 C 45.964844 15.203125 45.671875 14.925781 45.367188 14.652344 L 41.808594 16.984375 L 41.4375 16.714844 C 40.96875 16.375 40.480469 16.054688 39.972656 15.761719 C 39.480469 15.476562 38.960938 15.214844 38.414062 14.96875 L 37.992188 14.785156 L 38.230469 10.53125 C 38.113281 10.492188 38 10.457031 37.890625 10.421875 C 37.621094 10.335938 37.347656 10.257812 37.066406 10.179688 C 36.761719 10.097656 36.484375 10.03125 36.234375 9.976562 C 36.117188 9.949219 36 9.921875 35.882812 9.898438 L 33.960938 13.703125 L 33.507812 13.652344 C 33.273438 13.628906 33.039062 13.605469 32.804688 13.59375 L 32.804688 16.816406 C 39.328125 17.328125 44.519531 22.585938 44.9375 29.140625 Z M 31.097656 53.996094 C 30.6875 53.980469 30.277344 53.957031 29.867188 53.921875 L 28.871094 49.148438 C 27.492188 48.933594 26.160156 48.574219 24.894531 48.082031 L 21.644531 51.722656 C 20.429688 51.148438 19.277344 50.476562 18.1875 49.71875 L 19.707031 45.078125 C 18.636719 44.214844 17.660156 43.238281 16.796875 42.164062 L 12.164062 43.6875 C 11.40625 42.597656 10.738281 41.441406 10.167969 40.226562 L 13.796875 36.972656 C 13.308594 35.703125 12.949219 34.371094 12.734375 32.988281 L 7.964844 31.988281 C 7.933594 31.613281 7.910156 31.234375 7.898438 30.851562 L 18.625 30.851562 C 19.054688 37.535156 24.414062 42.871094 31.097656 43.253906 Z M 32.804688 52.746094 L 32.804688 48.273438 C 32.804688 47.953125 33.070312 47.6875 33.390625 47.6875 L 33.441406 47.6875 C 33.761719 47.6875 34.023438 47.953125 34.023438 48.273438 L 34.023438 52.597656 C 36.507812 52.113281 37.382812 50.648438 37.851562 48.800781 C 37.894531 48.632812 37.996094 48.507812 38.148438 48.425781 C 38.300781 48.34375 38.460938 48.335938 38.625 48.394531 C 38.640625 48.402344 38.660156 48.410156 38.675781 48.414062 C 38.957031 48.519531 39.113281 48.8125 39.042969 49.101562 C 38.457031 51.601562 37.300781 53.554688 33.445312 53.921875 C 33.277344 53.9375 33.125 53.886719 32.996094 53.773438 C 32.871094 53.65625 32.804688 53.507812 32.804688 53.339844 Z M 8.542969 24.683594 C 9.734375 19.425781 12.605469 14.882812 16.523438 11.589844 C 20.367188 8.359375 25.21875 6.332031 30.476562 6.011719 C 30.644531 6 30.792969 6.054688 30.914062 6.167969 C 31.035156 6.285156 31.097656 6.429688 31.097656 6.597656 L 31.097656 6.644531 C 31.097656 6.957031 30.859375 7.210938 30.550781 7.230469 C 25.8125 7.519531 21.421875 9.269531 17.867188 12.066406 L 17.867188 18.738281 L 17.742188 18.902344 C 17.238281 19.550781 16.777344 20.230469 16.363281 20.945312 C 16.144531 21.328125 15.933594 21.71875 15.742188 22.113281 C 16.023438 22.472656 16.109375 22.96875 15.925781 23.421875 C 15.648438 24.089844 14.886719 24.410156 14.21875 24.132812 C 13.550781 23.859375 13.234375 23.09375 13.507812 22.425781 C 13.703125 21.949219 14.148438 21.648438 14.632812 21.617188 C 14.84375 21.179688 15.070312 20.753906 15.3125 20.335938 C 15.714844 19.640625 16.164062 18.96875 16.652344 18.320312 L 16.652344 13.09375 C 13.273438 16.15625 10.804688 20.242188 9.738281 24.925781 C 10.09375 25.214844 10.285156 25.683594 10.199219 26.164062 C 10.074219 26.875 9.394531 27.351562 8.683594 27.226562 C 7.972656 27.101562 7.5 26.421875 7.625 25.710938 C 7.714844 25.207031 8.082031 24.820312 8.542969 24.683594 Z M 27.660156 18.183594 C 28.335938 17.9375 28.6875 17.1875 28.441406 16.507812 C 28.195312 15.828125 27.445312 15.480469 26.765625 15.726562 C 26.277344 15.902344 25.957031 16.34375 25.914062 16.832031 C 23.539062 17.921875 21.550781 19.613281 20.097656 21.6875 C 18.707031 23.671875 17.816406 26.007812 17.554688 28.496094 C 17.539062 28.664062 17.589844 28.820312 17.703125 28.949219 C 17.816406 29.074219 17.964844 29.140625 18.136719 29.140625 L 18.183594 29.140625 C 18.484375 29.140625 18.734375 28.914062 18.765625 28.617188 C 19.003906 26.339844 19.820312 24.203125 21.09375 22.382812 C 22.414062 20.5 24.21875 18.957031 26.375 17.957031 C 26.71875 18.246094 27.207031 18.351562 27.660156 18.183594 Z M 22.015625 15.792969 C 22.414062 15.515625 22.609375 15.050781 22.566406 14.597656 C 23.914062 13.773438 25.359375 13.132812 26.859375 12.691406 C 28.0625 12.335938 29.300781 12.109375 30.558594 12.011719 C 30.863281 11.988281 31.097656 11.734375 31.097656 11.425781 L 31.097656 11.378906 C 31.097656 11.210938 31.035156 11.0625 30.910156 10.949219 C 30.785156 10.832031 30.636719 10.78125 30.46875 10.792969 C 29.128906 10.898438 27.804688 11.144531 26.515625 11.523438 C 24.898438 12 23.347656 12.6875 21.898438 13.578125 C 21.476562 13.34375 20.9375 13.355469 20.515625 13.648438 C 19.925781 14.066406 19.78125 14.878906 20.195312 15.472656 C 20.609375 16.0625 21.421875 16.207031 22.015625 15.792969 Z M 22.015625 15.792969 " clip-rule="nonzero"></path></clipPath><linearGradient x1="-306.174859" gradientTransform="matrix(0.0133601, 0, 0, 0.0133795, 7.605544, 6.005136)" y1="3000.572206" x2="4311.599577" gradientUnits="userSpaceOnUse" y2="596.638152" id="f02ca37f8f"><stop stop-opacity="1" stop-color="rgb(74.766541%, 20.175171%, 97.694397%)" offset="0"></stop><stop stop-opacity="1" stop-color="rgb(74.328613%, 20.524597%, 97.654724%)" offset="0.00390625"></stop><stop stop-opacity="1" stop-color="rgb(73.890686%, 20.874023%, 97.615051%)" offset="0.0078125"></stop><stop stop-opacity="1" stop-color="rgb(73.452759%, 21.22345%, 97.575378%)" offset="0.0117187"></stop><stop stop-opacity="1" stop-color="rgb(73.014832%, 21.574402%, 97.535706%)" offset="0.015625"></stop><stop stop-opacity="1" stop-color="rgb(72.576904%, 21.923828%, 97.494507%)" offset="0.0195312"></stop><stop stop-opacity="1" stop-color="rgb(72.138977%, 22.27478%, 97.454834%)" offset="0.0234375"></stop><stop stop-opacity="1" stop-color="rgb(71.70105%, 22.624207%, 97.415161%)" offset="0.0273438"></stop><stop stop-opacity="1" stop-color="rgb(71.263123%, 22.975159%, 97.375488%)" offset="0.03125"></stop><stop stop-opacity="1" stop-color="rgb(70.825195%, 23.324585%, 97.33429%)" offset="0.0351562"></stop><stop stop-opacity="1" stop-color="rgb(70.387268%, 23.675537%, 97.294617%)" offset="0.0390625"></stop><stop stop-opacity="1" stop-color="rgb(69.949341%, 24.024963%, 97.254944%)" offset="0.0429687"></stop><stop stop-opacity="1" stop-color="rgb(69.511414%, 24.375916%, 97.215271%)" offset="0.046875"></stop><stop stop-opacity="1" stop-color="rgb(69.073486%, 24.725342%, 97.175598%)" offset="0.0507812"></stop><stop stop-opacity="1" stop-color="rgb(68.637085%, 25.076294%, 97.135925%)" offset="0.0546875"></stop><stop stop-opacity="1" stop-color="rgb(68.199158%, 25.42572%, 97.094727%)" offset="0.0585937"></stop><stop stop-opacity="1" stop-color="rgb(67.76123%, 25.775146%, 97.055054%)" offset="0.0625"></stop><stop stop-opacity="1" stop-color="rgb(67.323303%, 26.124573%, 97.015381%)" offset="0.0664062"></stop><stop stop-opacity="1" stop-color="rgb(66.885376%, 26.475525%, 96.975708%)" offset="0.0703125"></stop><stop stop-opacity="1" stop-color="rgb(66.447449%, 26.824951%, 96.934509%)" offset="0.0742187"></stop><stop stop-opacity="1" stop-color="rgb(66.009521%, 27.175903%, 96.894836%)" offset="0.078125"></stop><stop stop-opacity="1" stop-color="rgb(65.571594%, 27.52533%, 96.855164%)" offset="0.0820312"></stop><stop stop-opacity="1" stop-color="rgb(65.133667%, 27.876282%, 96.815491%)" offset="0.0859375"></stop><stop stop-opacity="1" stop-color="rgb(64.69574%, 28.225708%, 96.775818%)" offset="0.0898437"></stop><stop stop-opacity="1" stop-color="rgb(64.257812%, 28.57666%, 96.736145%)" offset="0.09375"></stop><stop stop-opacity="1" stop-color="rgb(63.819885%, 28.926086%, 96.694946%)" offset="0.0976563"></stop><stop stop-opacity="1" stop-color="rgb(63.381958%, 29.277039%, 96.655273%)" offset="0.101562"></stop><stop stop-opacity="1" stop-color="rgb(62.944031%, 29.626465%, 96.615601%)" offset="0.105469"></stop><stop stop-opacity="1" stop-color="rgb(62.506104%, 29.975891%, 96.575928%)" offset="0.109375"></stop><stop stop-opacity="1" stop-color="rgb(62.068176%, 30.325317%, 96.534729%)" offset="0.113281"></stop><stop stop-opacity="1" stop-color="rgb(61.631775%, 30.67627%, 96.495056%)" offset="0.117187"></stop><stop stop-opacity="1" stop-color="rgb(61.193848%, 31.025696%, 96.455383%)" offset="0.121094"></stop><stop stop-opacity="1" stop-color="rgb(60.75592%, 31.376648%, 96.41571%)" offset="0.125"></stop><stop stop-opacity="1" stop-color="rgb(60.317993%, 31.726074%, 96.376038%)" offset="0.128906"></stop><stop stop-opacity="1" stop-color="rgb(59.880066%, 32.077026%, 96.336365%)" offset="0.132812"></stop><stop stop-opacity="1" stop-color="rgb(59.442139%, 32.426453%, 96.295166%)" offset="0.136719"></stop><stop stop-opacity="1" stop-color="rgb(59.004211%, 32.777405%, 96.255493%)" offset="0.140625"></stop><stop stop-opacity="1" stop-color="rgb(58.566284%, 33.126831%, 96.21582%)" offset="0.144531"></stop><stop stop-opacity="1" stop-color="rgb(58.128357%, 33.477783%, 96.176147%)" offset="0.148437"></stop><stop stop-opacity="1" stop-color="rgb(57.69043%, 33.827209%, 96.134949%)" offset="0.152344"></stop><stop stop-opacity="1" stop-color="rgb(57.252502%, 34.176636%, 96.095276%)" offset="0.15625"></stop><stop stop-opacity="1" stop-color="rgb(56.814575%, 34.526062%, 96.055603%)" offset="0.160156"></stop><stop stop-opacity="1" stop-color="rgb(56.376648%, 34.877014%, 96.01593%)" offset="0.164062"></stop><stop stop-opacity="1" stop-color="rgb(55.938721%, 35.22644%, 95.976257%)" offset="0.167969"></stop><stop stop-opacity="1" stop-color="rgb(55.500793%, 35.577393%, 95.936584%)" offset="0.171875"></stop><stop stop-opacity="1" stop-color="rgb(55.062866%, 35.926819%, 95.895386%)" offset="0.175781"></stop><stop stop-opacity="1" stop-color="rgb(54.626465%, 36.277771%, 95.855713%)" offset="0.179687"></stop><stop stop-opacity="1" stop-color="rgb(54.188538%, 36.627197%, 95.81604%)" offset="0.183594"></stop><stop stop-opacity="1" stop-color="rgb(53.75061%, 36.978149%, 95.776367%)" offset="0.1875"></stop><stop stop-opacity="1" stop-color="rgb(53.312683%, 37.327576%, 95.735168%)" offset="0.191406"></stop><stop stop-opacity="1" stop-color="rgb(52.874756%, 37.678528%, 95.695496%)" offset="0.195313"></stop><stop stop-opacity="1" stop-color="rgb(52.436829%, 38.027954%, 95.655823%)" offset="0.199219"></stop><stop stop-opacity="1" stop-color="rgb(51.998901%, 38.37738%, 95.61615%)" offset="0.203125"></stop><stop stop-opacity="1" stop-color="rgb(51.560974%, 38.726807%, 95.576477%)" offset="0.207031"></stop><stop stop-opacity="1" stop-color="rgb(51.123047%, 39.077759%, 95.536804%)" offset="0.210937"></stop><stop stop-opacity="1" stop-color="rgb(50.68512%, 39.427185%, 95.495605%)" offset="0.214844"></stop><stop stop-opacity="1" stop-color="rgb(50.247192%, 39.778137%, 95.455933%)" offset="0.21875"></stop><stop stop-opacity="1" stop-color="rgb(49.809265%, 40.127563%, 95.41626%)" offset="0.222656"></stop><stop stop-opacity="1" stop-color="rgb(49.371338%, 40.478516%, 95.376587%)" offset="0.226562"></stop><stop stop-opacity="1" stop-color="rgb(48.933411%, 40.827942%, 95.335388%)" offset="0.230469"></stop><stop stop-opacity="1" stop-color="rgb(48.497009%, 41.178894%, 95.295715%)" offset="0.234375"></stop><stop stop-opacity="1" stop-color="rgb(48.059082%, 41.52832%, 95.256042%)" offset="0.238281"></stop><stop stop-opacity="1" stop-color="rgb(47.621155%, 41.879272%, 95.21637%)" offset="0.242188"></stop><stop stop-opacity="1" stop-color="rgb(47.183228%, 42.228699%, 95.176697%)" offset="0.246094"></stop><stop stop-opacity="1" stop-color="rgb(46.7453%, 42.579651%, 95.137024%)" offset="0.25"></stop><stop stop-opacity="1" stop-color="rgb(46.307373%, 42.929077%, 95.095825%)" offset="0.253906"></stop><stop stop-opacity="1" stop-color="rgb(45.869446%, 43.278503%, 95.056152%)" offset="0.257812"></stop><stop stop-opacity="1" stop-color="rgb(45.431519%, 43.62793%, 95.016479%)" offset="0.261719"></stop><stop stop-opacity="1" stop-color="rgb(44.993591%, 43.978882%, 94.976807%)" offset="0.265625"></stop><stop stop-opacity="1" stop-color="rgb(44.555664%, 44.328308%, 94.935608%)" offset="0.269531"></stop><stop stop-opacity="1" stop-color="rgb(44.117737%, 44.67926%, 94.895935%)" offset="0.273437"></stop><stop stop-opacity="1" stop-color="rgb(43.67981%, 45.028687%, 94.856262%)" offset="0.277344"></stop><stop stop-opacity="1" stop-color="rgb(43.241882%, 45.379639%, 94.816589%)" offset="0.28125"></stop><stop stop-opacity="1" stop-color="rgb(42.803955%, 45.729065%, 94.776917%)" offset="0.285156"></stop><stop stop-opacity="1" stop-color="rgb(42.366028%, 46.080017%, 94.737244%)" offset="0.289062"></stop><stop stop-opacity="1" stop-color="rgb(41.928101%, 46.429443%, 94.696045%)" offset="0.292969"></stop><stop stop-opacity="1" stop-color="rgb(41.491699%, 46.780396%, 94.656372%)" offset="0.296875"></stop><stop stop-opacity="1" stop-color="rgb(41.053772%, 47.129822%, 94.616699%)" offset="0.300781"></stop><stop stop-opacity="1" stop-color="rgb(40.615845%, 47.479248%, 94.577026%)" offset="0.304687"></stop><stop stop-opacity="1" stop-color="rgb(40.177917%, 47.828674%, 94.535828%)" offset="0.308594"></stop><stop stop-opacity="1" stop-color="rgb(39.73999%, 48.179626%, 94.496155%)" offset="0.3125"></stop><stop stop-opacity="1" stop-color="rgb(39.302063%, 48.529053%, 94.456482%)" offset="0.316406"></stop><stop stop-opacity="1" stop-color="rgb(38.864136%, 48.880005%, 94.416809%)" offset="0.320312"></stop><stop stop-opacity="1" stop-color="rgb(38.426208%, 49.229431%, 94.377136%)" offset="0.324219"></stop><stop stop-opacity="1" stop-color="rgb(37.988281%, 49.580383%, 94.337463%)" offset="0.328125"></stop><stop stop-opacity="1" stop-color="rgb(37.550354%, 49.92981%, 94.296265%)" offset="0.332031"></stop><stop stop-opacity="1" stop-color="rgb(37.112427%, 50.280762%, 94.256592%)" offset="0.335937"></stop><stop stop-opacity="1" stop-color="rgb(36.6745%, 50.630188%, 94.216919%)" offset="0.339844"></stop><stop stop-opacity="1" stop-color="rgb(36.236572%, 50.98114%, 94.177246%)" offset="0.34375"></stop><stop stop-opacity="1" stop-color="rgb(35.798645%, 51.330566%, 94.136047%)" offset="0.347656"></stop><stop stop-opacity="1" stop-color="rgb(35.362244%, 51.679993%, 94.096375%)" offset="0.351562"></stop><stop stop-opacity="1" stop-color="rgb(34.924316%, 52.029419%, 94.056702%)" offset="0.355469"></stop><stop stop-opacity="1" stop-color="rgb(34.486389%, 52.380371%, 94.017029%)" offset="0.359375"></stop><stop stop-opacity="1" stop-color="rgb(34.048462%, 52.729797%, 93.977356%)" offset="0.363281"></stop><stop stop-opacity="1" stop-color="rgb(33.610535%, 53.08075%, 93.937683%)" offset="0.367187"></stop><stop stop-opacity="1" stop-color="rgb(33.172607%, 53.430176%, 93.896484%)" offset="0.371094"></stop><stop stop-opacity="1" stop-color="rgb(32.73468%, 53.781128%, 93.856812%)" offset="0.375"></stop><stop stop-opacity="1" stop-color="rgb(32.296753%, 54.130554%, 93.817139%)" offset="0.378906"></stop><stop stop-opacity="1" stop-color="rgb(31.858826%, 54.481506%, 93.777466%)" offset="0.382812"></stop><stop stop-opacity="1" stop-color="rgb(31.420898%, 54.830933%, 93.736267%)" offset="0.386719"></stop><stop stop-opacity="1" stop-color="rgb(30.982971%, 55.181885%, 93.696594%)" offset="0.390625"></stop><stop stop-opacity="1" stop-color="rgb(30.545044%, 55.531311%, 93.656921%)" offset="0.394531"></stop><stop stop-opacity="1" stop-color="rgb(30.107117%, 55.880737%, 93.617249%)" offset="0.398437"></stop><stop stop-opacity="1" stop-color="rgb(29.669189%, 56.230164%, 93.577576%)" offset="0.402344"></stop><stop stop-opacity="1" stop-color="rgb(29.231262%, 56.581116%, 93.537903%)" offset="0.40625"></stop><stop stop-opacity="1" stop-color="rgb(28.793335%, 56.930542%, 93.496704%)" offset="0.410156"></stop><stop stop-opacity="1" stop-color="rgb(28.356934%, 57.281494%, 93.457031%)" offset="0.414062"></stop><stop stop-opacity="1" stop-color="rgb(27.919006%, 57.63092%, 93.417358%)" offset="0.417969"></stop><stop stop-opacity="1" stop-color="rgb(27.481079%, 57.981873%, 93.377686%)" offset="0.421875"></stop><stop stop-opacity="1" stop-color="rgb(27.043152%, 58.331299%, 93.336487%)" offset="0.425781"></stop><stop stop-opacity="1" stop-color="rgb(26.605225%, 58.682251%, 93.296814%)" offset="0.429688"></stop><stop stop-opacity="1" stop-color="rgb(26.167297%, 59.031677%, 93.257141%)" offset="0.433594"></stop><stop stop-opacity="1" stop-color="rgb(25.72937%, 59.382629%, 93.217468%)" offset="0.4375"></stop><stop stop-opacity="1" stop-color="rgb(25.291443%, 59.732056%, 93.177795%)" offset="0.441406"></stop><stop stop-opacity="1" stop-color="rgb(24.853516%, 60.081482%, 93.138123%)" offset="0.445312"></stop><stop stop-opacity="1" stop-color="rgb(24.415588%, 60.430908%, 93.096924%)" offset="0.449219"></stop><stop stop-opacity="1" stop-color="rgb(23.977661%, 60.78186%, 93.057251%)" offset="0.453125"></stop><stop stop-opacity="1" stop-color="rgb(23.539734%, 61.131287%, 93.017578%)" offset="0.457031"></stop><stop stop-opacity="1" stop-color="rgb(23.101807%, 61.482239%, 92.977905%)" offset="0.460937"></stop><stop stop-opacity="1" stop-color="rgb(22.663879%, 61.831665%, 92.936707%)" offset="0.464844"></stop><stop stop-opacity="1" stop-color="rgb(22.227478%, 62.182617%, 92.897034%)" offset="0.46875"></stop><stop stop-opacity="1" stop-color="rgb(21.789551%, 62.532043%, 92.857361%)" offset="0.472656"></stop><stop stop-opacity="1" stop-color="rgb(21.351624%, 62.882996%, 92.817688%)" offset="0.476562"></stop><stop stop-opacity="1" stop-color="rgb(20.913696%, 63.232422%, 92.778015%)" offset="0.480469"></stop><stop stop-opacity="1" stop-color="rgb(20.475769%, 63.583374%, 92.738342%)" offset="0.484375"></stop><stop stop-opacity="1" stop-color="rgb(20.037842%, 63.9328%, 92.697144%)" offset="0.488281"></stop><stop stop-opacity="1" stop-color="rgb(19.599915%, 64.283752%, 92.657471%)" offset="0.492187"></stop><stop stop-opacity="1" stop-color="rgb(19.161987%, 64.633179%, 92.617798%)" offset="0.496094"></stop><stop stop-opacity="1" stop-color="rgb(18.72406%, 64.982605%, 92.578125%)" offset="0.5"></stop><stop stop-opacity="1" stop-color="rgb(18.286133%, 65.332031%, 92.536926%)" offset="0.503906"></stop><stop stop-opacity="1" stop-color="rgb(17.848206%, 65.682983%, 92.497253%)" offset="0.507812"></stop><stop stop-opacity="1" stop-color="rgb(17.410278%, 66.03241%, 92.457581%)" offset="0.511719"></stop><stop stop-opacity="1" stop-color="rgb(16.972351%, 66.383362%, 92.417908%)" offset="0.515625"></stop><stop stop-opacity="1" stop-color="rgb(16.534424%, 66.732788%, 92.376709%)" offset="0.519531"></stop><stop stop-opacity="1" stop-color="rgb(16.096497%, 67.08374%, 92.337036%)" offset="0.523438"></stop><stop stop-opacity="1" stop-color="rgb(15.658569%, 67.433167%, 92.297363%)" offset="0.527344"></stop><stop stop-opacity="1" stop-color="rgb(15.222168%, 67.784119%, 92.25769%)" offset="0.53125"></stop><stop stop-opacity="1" stop-color="rgb(14.784241%, 68.133545%, 92.218018%)" offset="0.535156"></stop><stop stop-opacity="1" stop-color="rgb(14.346313%, 68.484497%, 92.178345%)" offset="0.539062"></stop><stop stop-opacity="1" stop-color="rgb(13.908386%, 68.833923%, 92.137146%)" offset="0.542969"></stop><stop stop-opacity="1" stop-color="rgb(13.470459%, 69.18335%, 92.097473%)" offset="0.546875"></stop><stop stop-opacity="1" stop-color="rgb(13.032532%, 69.532776%, 92.0578%)" offset="0.550781"></stop><stop stop-opacity="1" stop-color="rgb(12.594604%, 69.883728%, 92.018127%)" offset="0.554687"></stop><stop stop-opacity="1" stop-color="rgb(12.156677%, 70.233154%, 91.976929%)" offset="0.558594"></stop><stop stop-opacity="1" stop-color="rgb(11.71875%, 70.584106%, 91.937256%)" offset="0.5625"></stop><stop stop-opacity="1" stop-color="rgb(11.280823%, 70.933533%, 91.897583%)" offset="0.566406"></stop><stop stop-opacity="1" stop-color="rgb(10.842896%, 71.284485%, 91.85791%)" offset="0.570312"></stop><stop stop-opacity="1" stop-color="rgb(10.502625%, 71.589661%, 91.807556%)" offset="0.574219"></stop><stop stop-opacity="1" stop-color="rgb(10.163879%, 71.896362%, 91.758728%)" offset="0.578125"></stop><stop stop-opacity="1" stop-color="rgb(10.098267%, 72.077942%, 91.682434%)" offset="0.585938"></stop><stop stop-opacity="1" stop-color="rgb(9.967041%, 72.441101%, 91.529846%)" offset="0.59375"></stop><stop stop-opacity="1" stop-color="rgb(9.83429%, 72.805786%, 91.377258%)" offset="0.601562"></stop><stop stop-opacity="1" stop-color="rgb(9.703064%, 73.170471%, 91.22467%)" offset="0.609375"></stop><stop stop-opacity="1" stop-color="rgb(9.570312%, 73.535156%, 91.072083%)" offset="0.617188"></stop><stop stop-opacity="1" stop-color="rgb(9.439087%, 73.899841%, 90.919495%)" offset="0.625"></stop><stop stop-opacity="1" stop-color="rgb(9.306335%, 74.264526%, 90.766907%)" offset="0.632813"></stop><stop stop-opacity="1" stop-color="rgb(9.17511%, 74.629211%, 90.614319%)" offset="0.640625"></stop><stop stop-opacity="1" stop-color="rgb(9.043884%, 74.993896%, 90.461731%)" offset="0.648438"></stop><stop stop-opacity="1" stop-color="rgb(8.911133%, 75.358582%, 90.309143%)" offset="0.65625"></stop><stop stop-opacity="1" stop-color="rgb(8.779907%, 75.721741%, 90.158081%)" offset="0.664062"></stop><stop stop-opacity="1" stop-color="rgb(8.647156%, 76.086426%, 90.005493%)" offset="0.671875"></stop><stop stop-opacity="1" stop-color="rgb(8.51593%, 76.451111%, 89.852905%)" offset="0.679688"></stop><stop stop-opacity="1" stop-color="rgb(8.384705%, 76.815796%, 89.700317%)" offset="0.681862"></stop><stop stop-opacity="1" stop-color="rgb(8.319092%, 76.998901%, 89.624023%)" offset="0.6875"></stop><stop stop-opacity="1" stop-color="rgb(8.251953%, 77.180481%, 89.547729%)" offset="0.695313"></stop><stop stop-opacity="1" stop-color="rgb(8.120728%, 77.545166%, 89.395142%)" offset="0.703125"></stop><stop stop-opacity="1" stop-color="rgb(7.987976%, 77.909851%, 89.242554%)" offset="0.710937"></stop><stop stop-opacity="1" stop-color="rgb(7.85675%, 78.274536%, 89.089966%)" offset="0.71875"></stop><stop stop-opacity="1" stop-color="rgb(7.725525%, 78.639221%, 88.937378%)" offset="0.726562"></stop><stop stop-opacity="1" stop-color="rgb(7.592773%, 79.00238%, 88.78479%)" offset="0.734375"></stop><stop stop-opacity="1" stop-color="rgb(7.461548%, 79.367065%, 88.632202%)" offset="0.742188"></stop><stop stop-opacity="1" stop-color="rgb(7.328796%, 79.73175%, 88.479614%)" offset="0.75"></stop><stop stop-opacity="1" stop-color="rgb(7.197571%, 80.096436%, 88.327026%)" offset="0.757812"></stop><stop stop-opacity="1" stop-color="rgb(7.066345%, 80.461121%, 88.174438%)" offset="0.765625"></stop><stop stop-opacity="1" stop-color="rgb(6.933594%, 80.825806%, 88.021851%)" offset="0.773437"></stop><stop stop-opacity="1" stop-color="rgb(6.802368%, 81.190491%, 87.869263%)" offset="0.78125"></stop><stop stop-opacity="1" stop-color="rgb(6.669617%, 81.555176%, 87.716675%)" offset="0.789062"></stop><stop stop-opacity="1" stop-color="rgb(6.538391%, 81.918335%, 87.564087%)" offset="0.796875"></stop><stop stop-opacity="1" stop-color="rgb(6.407166%, 82.28302%, 87.411499%)" offset="0.804687"></stop><stop stop-opacity="1" stop-color="rgb(6.274414%, 82.647705%, 87.258911%)" offset="0.8125"></stop><stop stop-opacity="1" stop-color="rgb(6.143188%, 83.01239%, 87.106323%)" offset="0.820312"></stop><stop stop-opacity="1" stop-color="rgb(6.010437%, 83.377075%, 86.953735%)" offset="0.828125"></stop><stop stop-opacity="1" stop-color="rgb(5.879211%, 83.74176%, 86.801147%)" offset="0.835938"></stop><stop stop-opacity="1" stop-color="rgb(5.747986%, 84.106445%, 86.64856%)" offset="0.84375"></stop><stop stop-opacity="1" stop-color="rgb(5.615234%, 84.47113%, 86.495972%)" offset="0.851562"></stop><stop stop-opacity="1" stop-color="rgb(5.484009%, 84.835815%, 86.34491%)" offset="0.859375"></stop><stop stop-opacity="1" stop-color="rgb(5.351257%, 85.198975%, 86.192322%)" offset="0.867187"></stop><stop stop-opacity="1" stop-color="rgb(5.220032%, 85.56366%, 86.039734%)" offset="0.875"></stop><stop stop-opacity="1" stop-color="rgb(5.08728%, 85.928345%, 85.887146%)" offset="0.882812"></stop><stop stop-opacity="1" stop-color="rgb(4.956055%, 86.29303%, 85.734558%)" offset="0.890625"></stop><stop stop-opacity="1" stop-color="rgb(4.824829%, 86.657715%, 85.58197%)" offset="0.898438"></stop><stop stop-opacity="1" stop-color="rgb(4.692078%, 87.0224%, 85.429382%)" offset="0.90625"></stop><stop stop-opacity="1" stop-color="rgb(4.560852%, 87.387085%, 85.276794%)" offset="0.914062"></stop><stop stop-opacity="1" stop-color="rgb(4.428101%, 87.75177%, 85.124207%)" offset="0.921875"></stop><stop stop-opacity="1" stop-color="rgb(4.296875%, 88.116455%, 84.971619%)" offset="0.929687"></stop><stop stop-opacity="1" stop-color="rgb(4.165649%, 88.479614%, 84.819031%)" offset="0.9375"></stop><stop stop-opacity="1" stop-color="rgb(4.032898%, 88.844299%, 84.666443%)" offset="0.945312"></stop><stop stop-opacity="1" stop-color="rgb(3.901672%, 89.208984%, 84.513855%)" offset="0.953125"></stop><stop stop-opacity="1" stop-color="rgb(3.768921%, 89.573669%, 84.361267%)" offset="0.960938"></stop><stop stop-opacity="1" stop-color="rgb(3.637695%, 89.938354%, 84.208679%)" offset="0.96875"></stop><stop stop-opacity="1" stop-color="rgb(3.50647%, 90.30304%, 84.056091%)" offset="0.976562"></stop><stop stop-opacity="1" stop-color="rgb(3.373718%, 90.667725%, 83.903503%)" offset="0.984375"></stop><stop stop-opacity="1" stop-color="rgb(3.242493%, 91.03241%, 83.750916%)" offset="0.992188"></stop><stop stop-opacity="1" stop-color="rgb(3.109741%, 91.397095%, 83.598328%)" offset="1"></stop></linearGradient><clipPath id="4c15bf7713"><path d="M 71.042969 0 L 102.542969 0 L 102.542969 45.75 L 71.042969 45.75 Z M 71.042969 0 " clip-rule="nonzero"></path></clipPath></defs><g fill="#5b2dc3" fill-opacity="1"><g transform="translate(67.636455, 49.927399)"><g><path d="M 0.980469 0 L 9.175781 0 C 17.21875 -0.148438 20.015625 -3.140625 20.015625 -10.253906 L 20.015625 -12.265625 C 20.015625 -16.875 18.203125 -19.28125 15.796875 -20.554688 C 18.003906 -21.683594 19.625 -23.84375 19.625 -28.113281 L 19.625 -28.210938 C 19.625 -36.207031 17.417969 -39.148438 9.175781 -39.25 L 0.980469 -39.25 Z M 9.175781 -24.136719 L 9.175781 -31.054688 L 9.859375 -31.054688 C 11.1875 -31.054688 11.429688 -30.121094 11.429688 -28.210938 L 11.429688 -26.984375 C 11.429688 -25.019531 11.332031 -24.136719 9.859375 -24.136719 Z M 9.175781 -8.191406 L 9.175781 -15.945312 L 9.859375 -15.945312 C 11.285156 -15.945312 11.824219 -15.308594 11.824219 -13.394531 L 11.824219 -10.84375 C 11.824219 -8.976562 11.1875 -8.191406 9.859375 -8.191406 Z M 9.175781 -8.191406 "></path></g></g></g><g fill="#5b2dc3" fill-opacity="1"><g transform="translate(88.631366, 49.927399)"><g><path d="M 9.222656 0.492188 C 11.824219 0.492188 13.882812 -0.882812 15.503906 -2.796875 L 16.828125 0 L 19.917969 0 L 19.917969 -20.507812 L 10.449219 -20.507812 L 10.449219 -12.3125 L 11.726562 -12.3125 L 11.726562 -11.429688 C 11.726562 -8.488281 11.675781 -7.703125 10.449219 -7.703125 C 9.222656 -7.703125 9.175781 -8.488281 9.175781 -11.429688 L 9.175781 -27.816406 C 9.175781 -30.761719 9.222656 -31.546875 10.449219 -31.546875 C 11.628906 -31.546875 11.726562 -30.761719 11.726562 -27.816406 L 11.726562 -22.960938 L 19.917969 -22.960938 L 19.917969 -28.453125 C 19.917969 -36.453125 16.484375 -39.738281 10.449219 -39.738281 C 4.414062 -39.738281 0.980469 -36.453125 0.980469 -28.453125 L 0.980469 -10.792969 C 0.980469 -2.796875 3.875 0.492188 9.222656 0.492188 Z M 9.222656 0.492188 "></path></g></g></g><g fill="#5b2dc3" fill-opacity="1"><g transform="translate(109.528174, 49.927399)"><g><path d="M 0.980469 0 L 9.714844 0 L 11.96875 -13.738281 L 14.226562 0 L 22.960938 0 L 17.417969 -19.625 L 22.960938 -39.25 L 14.226562 -39.25 L 11.96875 -25.511719 L 9.714844 -39.25 L 0.980469 -39.25 L 6.523438 -19.625 Z M 0.980469 0 "></path></g></g></g><g fill="#5b2dc3" fill-opacity="1"><g transform="translate(133.466294, 49.927399)"><g></g></g></g><g fill="#5b2dc3" fill-opacity="1"><g transform="translate(139.843248, 49.927399)"><g><path d="M 0.980469 0 L 9.175781 0 L 9.566406 -6.28125 L 12.558594 -6.28125 L 12.953125 0 L 21.144531 0 L 16.632812 -39.25 L 5.496094 -39.25 Z M 10.105469 -14.421875 L 11.085938 -29.632812 L 12.019531 -14.421875 Z M 10.105469 -14.421875 "></path></g></g></g><g fill="#5b2dc3" fill-opacity="1"><g transform="translate(161.966394, 49.927399)"><g><path d="M 0.980469 0 L 9.175781 0 L 9.175781 -39.25 L 0.980469 -39.25 Z M 0.980469 0 "></path></g></g></g><g clip-path="url(#cfa8bbb425)"><g clip-path="url(#8e0e702728)"><path fill="url(#f02ca37f8f)" d="M 7.59375 6.003906 L 7.59375 53.996094 L 61.058594 53.996094 L 61.058594 6.003906 Z M 7.59375 6.003906 " fill-rule="nonzero"></path></g></g><path fill="#f9b406" d="M 31.761719 24.332031 C 28.636719 24.332031 26.101562 26.871094 26.101562 30 C 26.101562 33.128906 28.636719 35.667969 31.761719 35.667969 C 34.886719 35.667969 37.421875 33.128906 37.421875 30 C 37.421875 26.871094 34.886719 24.332031 31.761719 24.332031 " fill-opacity="1" fill-rule="evenodd"></path><g clip-path="url(#4c15bf7713)"><path fill="#ffffff" d="M 97.199219 16.078125 L 96.988281 12.765625 L 96.976562 12.597656 L 96.800781 12.582031 L 93.808594 12.324219 L 93.621094 12.304688 C 93.605469 12.304688 93.585938 12.304688 93.578125 12.300781 L 93.550781 12.296875 C 93.53125 12.292969 93.515625 12.289062 93.5 12.285156 C 93.429688 12.261719 93.371094 12.21875 93.335938 12.167969 C 93.296875 12.113281 93.28125 12.054688 93.28125 11.996094 L 93.296875 11.84375 L 93.320312 11.65625 L 93.492188 10.179688 L 93.554688 9.660156 L 93.039062 9.835938 L 90.703125 10.644531 L 90.84375 9.441406 L 90.910156 8.894531 L 90.394531 8.617188 L 89.21875 7.984375 L 94.941406 1.3125 L 93.328125 0 L 87.148438 7.679688 L 86.453125 8.542969 L 87.421875 9.019531 L 89.121094 9.855469 L 88.773438 14.144531 L 83.644531 9.679688 L 83.238281 9.324219 L 82.871094 9.660156 L 80.898438 11.476562 L 79.914062 12.382812 L 79.417969 12.835938 L 79.171875 13.0625 C 79.121094 13.109375 79.113281 13.117188 79.085938 13.136719 C 79.0625 13.15625 79.035156 13.167969 79.007812 13.183594 C 78.898438 13.234375 78.757812 13.238281 78.636719 13.191406 C 78.578125 13.167969 78.523438 13.132812 78.480469 13.085938 L 78.449219 13.050781 C 78.4375 13.039062 78.417969 13.007812 78.402344 12.988281 L 78.304688 12.851562 L 77.53125 11.757812 L 75.984375 9.578125 L 75.933594 9.507812 L 75.863281 9.5 L 71.3125 9.058594 L 75.734375 9.824219 L 77.074219 12.054688 L 77.761719 13.199219 L 77.847656 13.339844 C 77.863281 13.367188 77.875 13.386719 77.894531 13.417969 C 77.917969 13.449219 77.941406 13.484375 77.964844 13.515625 C 78.066406 13.640625 78.195312 13.742188 78.335938 13.8125 C 78.625 13.957031 78.964844 13.980469 79.273438 13.875 C 79.351562 13.847656 79.425781 13.8125 79.496094 13.769531 C 79.5625 13.730469 79.640625 13.667969 79.675781 13.640625 L 79.9375 13.433594 L 80.464844 13.019531 L 81.519531 12.1875 L 83.199219 10.859375 L 84.78125 12.457031 L 83.324219 12.695312 L 83.015625 12.746094 L 83.015625 13.039062 L 83.011719 14.664062 L 81.679688 14.933594 L 80.882812 15.097656 L 80.683594 15.136719 L 80.585938 15.15625 C 80.554688 15.164062 80.503906 15.175781 80.46875 15.183594 C 80.304688 15.230469 80.152344 15.304688 80.019531 15.40625 C 79.886719 15.507812 79.773438 15.636719 79.691406 15.78125 C 79.652344 15.855469 79.617188 15.929688 79.59375 16.011719 L 79.535156 16.207031 L 79.308594 16.980469 L 78.886719 18.425781 L 71.046875 19.71875 L 79.046875 18.75 L 79.15625 18.738281 L 79.191406 18.632812 L 79.710938 17.105469 L 79.972656 16.34375 L 80.039062 16.15625 C 80.054688 16.105469 80.078125 16.0625 80.105469 16.019531 C 80.15625 15.933594 80.230469 15.859375 80.316406 15.796875 C 80.398438 15.742188 80.496094 15.699219 80.597656 15.675781 C 80.625 15.671875 80.640625 15.667969 80.675781 15.660156 L 80.980469 15.613281 L 81.78125 15.484375 L 83.386719 15.230469 L 83.636719 15.191406 L 83.648438 14.929688 L 83.722656 13.367188 L 85.472656 13.15625 L 87.421875 15.128906 L 82.3125 18.191406 L 81.929688 18.417969 L 82.03125 18.828125 L 82.566406 20.996094 L 80.117188 21.988281 L 79.890625 22.078125 L 79.894531 22.304688 L 79.929688 24.222656 L 78.488281 24.671875 L 78.367188 24.707031 L 78.324219 24.8125 L 76.738281 28.773438 L 71.667969 32.730469 L 76.953125 28.984375 L 76.984375 28.964844 L 77.003906 28.925781 L 78.738281 25.125 L 80.308594 24.714844 L 80.515625 24.660156 L 80.523438 24.4375 L 80.574219 22.550781 L 82.757812 21.78125 L 83.8125 26.042969 L 81.855469 27.910156 L 81.820312 27.941406 L 81.773438 27.988281 C 81.742188 28.019531 81.714844 28.054688 81.6875 28.089844 C 81.632812 28.160156 81.585938 28.238281 81.546875 28.316406 C 81.46875 28.476562 81.429688 28.65625 81.429688 28.835938 C 81.429688 29.015625 81.46875 29.191406 81.546875 29.351562 C 81.566406 29.390625 81.589844 29.429688 81.609375 29.46875 C 81.632812 29.503906 81.660156 29.539062 81.683594 29.574219 C 81.710938 29.605469 81.746094 29.644531 81.765625 29.671875 L 81.832031 29.738281 L 82.617188 30.566406 L 79.054688 33.640625 L 79.003906 33.683594 L 78.984375 33.738281 L 74.605469 45.75 L 79.40625 33.96875 L 82.078125 31.835938 L 83.695312 34.320312 L 81.109375 37.28125 L 81.089844 37.300781 L 81.085938 37.324219 L 80.632812 41.894531 L 81.242188 37.367188 L 83.992188 34.429688 L 84.070312 34.351562 L 84.007812 34.253906 L 82.398438 31.582031 L 83.316406 30.847656 L 83.582031 30.632812 L 83.347656 30.371094 L 82.371094 29.253906 L 82.308594 29.183594 C 82.292969 29.164062 82.285156 29.152344 82.273438 29.136719 L 82.242188 29.09375 L 82.21875 29.046875 C 82.195312 28.980469 82.183594 28.914062 82.183594 28.84375 C 82.1875 28.777344 82.207031 28.710938 82.238281 28.652344 C 82.253906 28.621094 82.273438 28.59375 82.296875 28.566406 C 82.308594 28.554688 82.320312 28.539062 82.332031 28.53125 L 82.351562 28.511719 L 82.386719 28.480469 L 84.609375 26.511719 L 84.796875 26.347656 L 84.742188 26.089844 L 83.273438 19 L 85.597656 17.726562 L 88.835938 19.847656 L 88.804688 20.957031 L 88.796875 21.265625 L 89.058594 21.386719 L 89.894531 21.777344 L 89.71875 22.089844 L 88.714844 23.84375 L 88.582031 24.074219 L 88.753906 24.253906 L 90.40625 26.003906 L 88.742188 27.621094 L 88.640625 27.71875 L 88.714844 27.832031 L 90.085938 29.816406 L 89.53125 31 L 89.5 31.066406 L 89.546875 31.113281 L 89.96875 31.554688 L 87.578125 36.628906 L 90.164062 31.578125 L 90.191406 31.523438 L 90.148438 31.472656 L 89.75 31.027344 L 90.34375 29.859375 L 90.375 29.800781 L 90.335938 29.738281 L 89.070312 27.769531 L 90.683594 26.300781 L 91.011719 26.652344 L 92.144531 27.847656 L 92.285156 28 L 92.355469 28.074219 L 92.386719 28.105469 C 92.394531 28.113281 92.402344 28.125 92.410156 28.132812 C 92.472656 28.214844 92.515625 28.308594 92.527344 28.410156 C 92.527344 28.433594 92.53125 28.453125 92.53125 28.488281 L 92.527344 28.589844 L 92.527344 28.796875 L 92.523438 29.207031 L 92.476562 35.761719 L 92.875 29.21875 L 92.902344 28.808594 L 92.914062 28.601562 L 92.917969 28.5 C 92.921875 28.464844 92.921875 28.417969 92.921875 28.375 C 92.910156 28.203125 92.847656 28.035156 92.75 27.890625 C 92.734375 27.875 92.722656 27.855469 92.710938 27.839844 L 92.671875 27.796875 L 92.605469 27.714844 L 92.472656 27.558594 L 91.410156 26.304688 L 89.453125 23.996094 L 90.414062 22.503906 L 90.550781 22.292969 L 90.617188 22.1875 L 90.652344 22.132812 L 90.660156 22.121094 L 90.671875 22.101562 C 90.683594 22.082031 90.695312 22.058594 90.707031 22.039062 C 90.789062 21.867188 90.800781 21.65625 90.738281 21.476562 C 90.675781 21.296875 90.539062 21.144531 90.378906 21.058594 L 89.746094 20.71875 L 89.839844 19.613281 L 89.859375 19.351562 L 89.625 19.183594 L 86.765625 17.085938 L 89.839844 15.398438 L 90.160156 15.222656 L 90.203125 14.835938 L 90.597656 11.523438 L 92.785156 10.65625 L 92.714844 11.601562 L 92.703125 11.789062 C 92.699219 11.851562 92.691406 11.894531 92.691406 12.003906 C 92.699219 12.195312 92.769531 12.378906 92.886719 12.519531 C 93.003906 12.660156 93.164062 12.761719 93.339844 12.808594 C 93.378906 12.824219 93.425781 12.832031 93.46875 12.835938 L 93.535156 12.84375 C 93.558594 12.847656 93.566406 12.847656 93.585938 12.847656 L 93.773438 12.855469 L 96.605469 12.972656 L 96.960938 16.214844 L 96.972656 16.332031 L 102.539062 15.960938 Z M 88.761719 14.292969 L 88.761719 14.328125 L 88.6875 14.375 Z M 88.761719 14.292969 " fill-opacity="1" fill-rule="nonzero"></path></g></svg>